<svg width="194" height="40" viewBox="0 0 194 40" fill="none" xmlns="http://www.w3.org/2000/svg">
<path d="M2.5 35H37.5V37.5H2.5V35ZM33.75 13.75C34.0815 13.75 34.3995 13.6183 34.6339 13.3839C34.8683 13.1495 35 12.8315 35 12.5V8.75C34.9999 8.49311 34.9206 8.24249 34.773 8.03224C34.6254 7.822 34.4166 7.66234 34.175 7.575L20.425 2.575C20.1504 2.47571 19.8496 2.47571 19.575 2.575L5.825 7.575C5.58341 7.66234 5.3746 7.822 5.22698 8.03224C5.07937 8.24249 5.00011 8.49311 5 8.75V12.5C5 12.8315 5.1317 13.1495 5.36612 13.3839C5.60054 13.6183 5.91848 13.75 6.25 13.75H7.5V30H5V32.5H35V30H32.5V13.75H33.75ZM7.5 9.625L20 5.075L32.5 9.625V11.25H7.5V9.625ZM22.5 30H17.5V13.75H22.5V30ZM10 13.75H15V30H10V13.75ZM30 30H25V13.75H30V30Z" fill="#F8F8F8"/>
<path d="M61.768 28L58.116 21.73H55.696V28H53.694V12.666H58.644C59.8027 12.666 60.778 12.864 61.57 13.26C62.3767 13.656 62.978 14.1913 63.374 14.866C63.77 15.5407 63.968 16.3107 63.968 17.176C63.968 18.232 63.66 19.1633 63.044 19.97C62.4427 20.7767 61.5333 21.312 60.316 21.576L64.166 28H61.768ZM55.696 20.124H58.644C59.7293 20.124 60.5433 19.86 61.086 19.332C61.6287 18.7893 61.9 18.0707 61.9 17.176C61.9 16.2667 61.6287 15.5627 61.086 15.064C60.558 14.5653 59.744 14.316 58.644 14.316H55.696V20.124ZM68.6128 13.986C68.2314 13.986 67.9088 13.854 67.6448 13.59C67.3808 13.326 67.2488 13.0033 67.2488 12.622C67.2488 12.2407 67.3808 11.918 67.6448 11.654C67.9088 11.39 68.2314 11.258 68.6128 11.258C68.9794 11.258 69.2874 11.39 69.5368 11.654C69.8008 11.918 69.9328 12.2407 69.9328 12.622C69.9328 13.0033 69.8008 13.326 69.5368 13.59C69.2874 13.854 68.9794 13.986 68.6128 13.986ZM69.5808 15.944V28H67.5788V15.944H69.5808ZM77.7608 28.198C76.8368 28.198 76.0082 28.044 75.2748 27.736C74.5415 27.4133 73.9622 26.9733 73.5368 26.416C73.1115 25.844 72.8768 25.1913 72.8328 24.458H74.9008C74.9595 25.0593 75.2382 25.5507 75.7368 25.932C76.2502 26.3133 76.9175 26.504 77.7388 26.504C78.5015 26.504 79.1028 26.3353 79.5428 25.998C79.9828 25.6607 80.2028 25.2353 80.2028 24.722C80.2028 24.194 79.9682 23.8053 79.4988 23.556C79.0295 23.292 78.3035 23.0353 77.3208 22.786C76.4262 22.5513 75.6928 22.3167 75.1208 22.082C74.5635 21.8327 74.0795 21.4733 73.6688 21.004C73.2728 20.52 73.0748 19.8893 73.0748 19.112C73.0748 18.496 73.2582 17.9313 73.6248 17.418C73.9915 16.9047 74.5122 16.5013 75.1868 16.208C75.8615 15.9 76.6315 15.746 77.4968 15.746C78.8315 15.746 79.9095 16.0833 80.7308 16.758C81.5522 17.4327 81.9922 18.3567 82.0508 19.53H80.0488C80.0048 18.8993 79.7482 18.3933 79.2788 18.012C78.8242 17.6307 78.2082 17.44 77.4308 17.44C76.7122 17.44 76.1402 17.594 75.7148 17.902C75.2895 18.21 75.0768 18.6133 75.0768 19.112C75.0768 19.508 75.2015 19.838 75.4508 20.102C75.7148 20.3513 76.0375 20.5567 76.4188 20.718C76.8148 20.8647 77.3575 21.0333 78.0468 21.224C78.9122 21.4587 79.6162 21.6933 80.1588 21.928C80.7015 22.148 81.1635 22.4853 81.5448 22.94C81.9408 23.3947 82.1462 23.9887 82.1608 24.722C82.1608 25.382 81.9775 25.976 81.6108 26.504C81.2442 27.032 80.7235 27.45 80.0488 27.758C79.3888 28.0513 78.6262 28.198 77.7608 28.198ZM96.487 21.51C96.487 21.8913 96.465 22.2947 96.421 22.72H86.785C86.8583 23.908 87.2616 24.8393 87.995 25.514C88.743 26.174 89.645 26.504 90.701 26.504C91.5663 26.504 92.285 26.306 92.857 25.91C93.4436 25.4993 93.8543 24.9567 94.089 24.282H96.245C95.9223 25.4407 95.277 26.3867 94.309 27.12C93.341 27.8387 92.1383 28.198 90.701 28.198C89.557 28.198 88.5303 27.9413 87.621 27.428C86.7263 26.9147 86.0223 26.1887 85.509 25.25C84.9956 24.2967 84.739 23.1967 84.739 21.95C84.739 20.7033 84.9883 19.6107 85.487 18.672C85.9856 17.7333 86.6823 17.0147 87.577 16.516C88.4863 16.0027 89.5276 15.746 90.701 15.746C91.845 15.746 92.857 15.9953 93.737 16.494C94.617 16.9927 95.2916 17.682 95.761 18.562C96.245 19.4273 96.487 20.41 96.487 21.51ZM94.419 21.092C94.419 20.3293 94.2503 19.6767 93.913 19.134C93.5756 18.5767 93.1136 18.1587 92.527 17.88C91.955 17.5867 91.317 17.44 90.613 17.44C89.601 17.44 88.7356 17.7627 88.017 18.408C87.313 19.0533 86.9096 19.948 86.807 21.092H94.419ZM108.298 12.666V14.294H101.632V19.464H107.044V21.092H101.632V28H99.6295V12.666H108.298ZM112.249 13.986C111.868 13.986 111.545 13.854 111.281 13.59C111.017 13.326 110.885 13.0033 110.885 12.622C110.885 12.2407 111.017 11.918 111.281 11.654C111.545 11.39 111.868 11.258 112.249 11.258C112.616 11.258 112.924 11.39 113.173 11.654C113.437 11.918 113.569 12.2407 113.569 12.622C113.569 13.0033 113.437 13.326 113.173 13.59C112.924 13.854 112.616 13.986 112.249 13.986ZM113.217 15.944V28H111.215V15.944H113.217ZM123.004 15.724C124.47 15.724 125.658 16.1713 126.568 17.066C127.477 17.946 127.932 19.222 127.932 20.894V28H125.952V21.18C125.952 19.9773 125.651 19.0607 125.05 18.43C124.448 17.7847 123.627 17.462 122.586 17.462C121.53 17.462 120.686 17.792 120.056 18.452C119.44 19.112 119.132 20.0727 119.132 21.334V28H117.13V15.944H119.132V17.66C119.528 17.044 120.063 16.5673 120.738 16.23C121.427 15.8927 122.182 15.724 123.004 15.724ZM130.954 21.928C130.954 20.696 131.203 19.618 131.702 18.694C132.2 17.7553 132.882 17.0293 133.748 16.516C134.628 16.0027 135.603 15.746 136.674 15.746C137.73 15.746 138.646 15.9733 139.424 16.428C140.201 16.8827 140.78 17.4547 141.162 18.144V15.944H143.186V28H141.162V25.756C140.766 26.46 140.172 27.0467 139.38 27.516C138.602 27.9707 137.693 28.198 136.652 28.198C135.581 28.198 134.613 27.934 133.748 27.406C132.882 26.878 132.2 26.1373 131.702 25.184C131.203 24.2307 130.954 23.1453 130.954 21.928ZM141.162 21.95C141.162 21.0407 140.978 20.2487 140.612 19.574C140.245 18.8993 139.746 18.386 139.116 18.034C138.5 17.6673 137.818 17.484 137.07 17.484C136.322 17.484 135.64 17.66 135.024 18.012C134.408 18.364 133.916 18.8773 133.55 19.552C133.183 20.2267 133 21.0187 133 21.928C133 22.852 133.183 23.6587 133.55 24.348C133.916 25.0227 134.408 25.5433 135.024 25.91C135.64 26.262 136.322 26.438 137.07 26.438C137.818 26.438 138.5 26.262 139.116 25.91C139.746 25.5433 140.245 25.0227 140.612 24.348C140.978 23.6587 141.162 22.8593 141.162 21.95ZM152.943 15.724C154.41 15.724 155.598 16.1713 156.507 17.066C157.416 17.946 157.871 19.222 157.871 20.894V28H155.891V21.18C155.891 19.9773 155.59 19.0607 154.989 18.43C154.388 17.7847 153.566 17.462 152.525 17.462C151.469 17.462 150.626 17.792 149.995 18.452C149.379 19.112 149.071 20.0727 149.071 21.334V28H147.069V15.944H149.071V17.66C149.467 17.044 150.002 16.5673 150.677 16.23C151.366 15.8927 152.122 15.724 152.943 15.724ZM160.893 21.95C160.893 20.7033 161.143 19.618 161.641 18.694C162.14 17.7553 162.829 17.0293 163.709 16.516C164.604 16.0027 165.623 15.746 166.767 15.746C168.249 15.746 169.466 16.1053 170.419 16.824C171.387 17.5427 172.025 18.54 172.333 19.816H170.177C169.972 19.0827 169.569 18.5033 168.967 18.078C168.381 17.6527 167.647 17.44 166.767 17.44C165.623 17.44 164.699 17.836 163.995 18.628C163.291 19.4053 162.939 20.5127 162.939 21.95C162.939 23.402 163.291 24.524 163.995 25.316C164.699 26.108 165.623 26.504 166.767 26.504C167.647 26.504 168.381 26.2987 168.967 25.888C169.554 25.4773 169.957 24.8907 170.177 24.128H172.333C172.011 25.36 171.365 26.35 170.397 27.098C169.429 27.8313 168.219 28.198 166.767 28.198C165.623 28.198 164.604 27.9413 163.709 27.428C162.829 26.9147 162.14 26.1887 161.641 25.25C161.143 24.3113 160.893 23.2113 160.893 21.95ZM186.505 21.51C186.505 21.8913 186.483 22.2947 186.439 22.72H176.803C176.876 23.908 177.279 24.8393 178.013 25.514C178.761 26.174 179.663 26.504 180.719 26.504C181.584 26.504 182.303 26.306 182.875 25.91C183.461 25.4993 183.872 24.9567 184.107 24.282H186.263C185.94 25.4407 185.295 26.3867 184.327 27.12C183.359 27.8387 182.156 28.198 180.719 28.198C179.575 28.198 178.548 27.9413 177.639 27.428C176.744 26.9147 176.04 26.1887 175.527 25.25C175.013 24.2967 174.757 23.1967 174.757 21.95C174.757 20.7033 175.006 19.6107 175.505 18.672C176.003 17.7333 176.7 17.0147 177.595 16.516C178.504 16.0027 179.545 15.746 180.719 15.746C181.863 15.746 182.875 15.9953 183.755 16.494C184.635 16.9927 185.309 17.682 185.779 18.562C186.263 19.4273 186.505 20.41 186.505 21.51ZM184.437 21.092C184.437 20.3293 184.268 19.6767 183.931 19.134C183.593 18.5767 183.131 18.1587 182.545 17.88C181.973 17.5867 181.335 17.44 180.631 17.44C179.619 17.44 178.753 17.7627 178.035 18.408C177.331 19.0533 176.927 19.948 176.825 21.092H184.437Z" fill="white"/>
</svg>
