<svg width="682" height="483" viewBox="0 0 682 483" fill="none" xmlns="http://www.w3.org/2000/svg">
<g filter="url(#filter0_f_8_749)">
<rect x="72.8323" y="72.8324" width="535.382" height="337.265" rx="24.2775" fill="url(#paint0_linear_8_749)"/>
</g>
<rect x="64.9333" y="64.1599" width="535.382" height="337.265" rx="24.2775" fill="url(#paint1_linear_8_749)"/>
<mask id="mask0_8_749" style="mask-type:alpha" maskUnits="userSpaceOnUse" x="64" y="64" width="536" height="338">
<rect x="64.9333" y="64.1599" width="535.045" height="337.379" rx="24.2775" fill="#ED713C"/>
</mask>
<g mask="url(#mask0_8_749)">
<ellipse opacity="0.1" cx="106.548" cy="454.712" rx="272.618" ry="207.195" fill="black"/>
<ellipse opacity="0.08" cx="558.363" cy="10.986" rx="272.618" ry="207.195" fill="black"/>
</g>
<path d="M515.225 339.864C515.225 338.565 515.437 337.553 515.86 336.828C516.283 336.095 517.023 335.729 518.08 335.729C519.13 335.729 519.867 336.095 520.289 336.828C520.712 337.553 520.924 338.565 520.924 339.864C520.924 341.186 520.712 342.213 520.289 342.946C519.867 343.678 519.13 344.045 518.08 344.045C517.023 344.045 516.283 343.678 515.86 342.946C515.437 342.213 515.225 341.186 515.225 339.864ZM519.904 339.864C519.904 339.207 519.859 338.652 519.768 338.199C519.685 337.738 519.508 337.368 519.236 337.088C518.971 336.809 518.586 336.669 518.08 336.669C517.567 336.669 517.174 336.809 516.902 337.088C516.638 337.368 516.46 337.738 516.369 338.199C516.286 338.652 516.245 339.207 516.245 339.864C516.245 340.544 516.286 341.114 516.369 341.575C516.46 342.036 516.638 342.406 516.902 342.685C517.174 342.965 517.567 343.104 518.08 343.104C518.586 343.104 518.971 342.965 519.236 342.685C519.508 342.406 519.685 342.036 519.768 341.575C519.859 341.114 519.904 340.544 519.904 339.864ZM524.069 341.847C524.145 342.277 524.319 342.61 524.591 342.844C524.87 343.078 525.244 343.195 525.712 343.195C526.339 343.195 526.8 342.95 527.094 342.459C527.397 341.968 527.54 341.141 527.525 339.978C527.366 340.317 527.102 340.586 526.732 340.782C526.362 340.971 525.95 341.065 525.497 341.065C524.991 341.065 524.538 340.963 524.137 340.759C523.745 340.548 523.435 340.242 523.208 339.842C522.982 339.441 522.869 338.958 522.869 338.391C522.869 337.583 523.103 336.934 523.571 336.443C524.039 335.944 524.704 335.695 525.565 335.695C526.622 335.695 527.363 336.039 527.786 336.726C528.216 337.413 528.431 338.437 528.431 339.796C528.431 340.748 528.344 341.533 528.171 342.153C528.005 342.772 527.718 343.244 527.31 343.569C526.909 343.894 526.358 344.056 525.656 344.056C524.885 344.056 524.285 343.848 523.854 343.433C523.424 343.018 523.178 342.489 523.118 341.847H524.069ZM525.667 340.193C526.173 340.193 526.588 340.038 526.913 339.728C527.238 339.411 527.4 338.984 527.4 338.448C527.4 337.882 527.242 337.425 526.925 337.077C526.607 336.73 526.162 336.556 525.588 336.556C525.059 336.556 524.636 336.722 524.319 337.055C524.009 337.387 523.854 337.825 523.854 338.369C523.854 338.92 524.009 339.362 524.319 339.694C524.628 340.027 525.078 340.193 525.667 340.193ZM534.307 333.372L531.203 345.971H530.183L533.276 333.372H534.307ZM535.953 343.218C536.912 342.447 537.664 341.817 538.208 341.326C538.751 340.827 539.208 340.31 539.578 339.774C539.956 339.23 540.145 338.697 540.145 338.176C540.145 337.685 540.024 337.3 539.782 337.021C539.548 336.734 539.167 336.59 538.638 336.59C538.124 336.59 537.724 336.752 537.437 337.077C537.158 337.394 537.007 337.821 536.984 338.357H535.987C536.017 337.511 536.274 336.858 536.757 336.397C537.241 335.937 537.864 335.706 538.627 335.706C539.405 335.706 540.02 335.922 540.473 336.352C540.934 336.783 541.165 337.376 541.165 338.131C541.165 338.758 540.976 339.37 540.598 339.966C540.228 340.555 539.805 341.076 539.329 341.53C538.853 341.975 538.245 342.496 537.505 343.093H541.402V343.954H535.953V343.218ZM548.222 336.749H544.245V339.332C544.419 339.09 544.676 338.894 545.016 338.743C545.355 338.584 545.722 338.505 546.114 338.505C546.741 338.505 547.251 338.637 547.644 338.901C548.037 339.158 548.316 339.494 548.482 339.91C548.656 340.317 548.743 340.752 548.743 341.212C548.743 341.756 548.641 342.243 548.437 342.674C548.233 343.104 547.92 343.444 547.497 343.694C547.081 343.943 546.564 344.067 545.945 344.067C545.151 344.067 544.509 343.864 544.019 343.456C543.528 343.048 543.229 342.504 543.123 341.824H544.132C544.23 342.255 544.438 342.591 544.755 342.833C545.072 343.074 545.472 343.195 545.956 343.195C546.553 343.195 547.002 343.018 547.304 342.663C547.606 342.3 547.757 341.824 547.757 341.235C547.757 340.646 547.606 340.193 547.304 339.876C547.002 339.551 546.556 339.388 545.967 339.388C545.567 339.388 545.216 339.487 544.914 339.683C544.619 339.872 544.404 340.132 544.268 340.465H543.293V335.842H548.222V336.749Z" fill="white"/>
<path opacity="0.9" d="M121.764 336.749H117.787V339.332C117.961 339.09 118.218 338.894 118.558 338.743C118.898 338.584 119.264 338.505 119.657 338.505C120.284 338.505 120.793 338.637 121.186 338.901C121.579 339.158 121.858 339.494 122.025 339.91C122.198 340.317 122.285 340.752 122.285 341.212C122.285 341.756 122.183 342.243 121.979 342.674C121.775 343.104 121.462 343.444 121.039 343.694C120.623 343.943 120.106 344.067 119.487 344.067C118.694 344.067 118.052 343.864 117.561 343.456C117.07 343.048 116.771 342.504 116.666 341.824H117.674C117.772 342.255 117.98 342.591 118.297 342.833C118.614 343.074 119.015 343.195 119.498 343.195C120.095 343.195 120.544 343.018 120.846 342.663C121.148 342.3 121.299 341.824 121.299 341.235C121.299 340.646 121.148 340.193 120.846 339.876C120.544 339.551 120.099 339.388 119.509 339.388C119.109 339.388 118.758 339.487 118.456 339.683C118.161 339.872 117.946 340.132 117.81 340.465H116.836V335.842H121.764V336.749ZM123.935 343.218C124.894 342.447 125.646 341.817 126.19 341.326C126.734 340.827 127.191 340.31 127.561 339.774C127.938 339.23 128.127 338.697 128.127 338.176C128.127 337.685 128.006 337.3 127.765 337.021C127.53 336.734 127.149 336.59 126.62 336.59C126.107 336.59 125.706 336.752 125.419 337.077C125.14 337.394 124.989 337.821 124.966 338.357H123.969C123.999 337.511 124.256 336.858 124.74 336.397C125.223 335.937 125.846 335.706 126.609 335.706C127.387 335.706 128.002 335.922 128.456 336.352C128.916 336.783 129.147 337.376 129.147 338.131C129.147 338.758 128.958 339.37 128.58 339.966C128.21 340.555 127.787 341.076 127.311 341.53C126.836 341.975 126.227 342.496 125.487 343.093H129.385V343.954H123.935V343.218ZM132.477 339.785C132.054 339.619 131.729 339.377 131.502 339.06C131.276 338.743 131.162 338.357 131.162 337.904C131.162 337.496 131.264 337.13 131.468 336.805C131.672 336.473 131.974 336.212 132.375 336.024C132.782 335.827 133.273 335.729 133.847 335.729C134.421 335.729 134.909 335.827 135.309 336.024C135.717 336.212 136.023 336.473 136.227 336.805C136.438 337.13 136.544 337.496 136.544 337.904C136.544 338.342 136.427 338.727 136.193 339.06C135.958 339.385 135.637 339.626 135.23 339.785C135.698 339.928 136.068 340.181 136.34 340.544C136.619 340.899 136.759 341.33 136.759 341.836C136.759 342.326 136.638 342.757 136.397 343.127C136.155 343.49 135.811 343.773 135.366 343.977C134.928 344.173 134.421 344.271 133.847 344.271C133.273 344.271 132.767 344.173 132.329 343.977C131.899 343.773 131.563 343.49 131.321 343.127C131.079 342.757 130.958 342.326 130.958 341.836C130.958 341.33 131.094 340.895 131.366 340.533C131.638 340.17 132.008 339.921 132.477 339.785ZM135.547 338.029C135.547 337.568 135.396 337.213 135.094 336.964C134.792 336.715 134.376 336.59 133.847 336.59C133.326 336.59 132.915 336.715 132.613 336.964C132.31 337.213 132.159 337.572 132.159 338.04C132.159 338.463 132.314 338.803 132.624 339.06C132.941 339.317 133.349 339.445 133.847 339.445C134.353 339.445 134.761 339.317 135.071 339.06C135.388 338.795 135.547 338.452 135.547 338.029ZM133.847 340.238C133.289 340.238 132.832 340.37 132.477 340.635C132.122 340.891 131.944 341.28 131.944 341.802C131.944 342.285 132.114 342.674 132.454 342.968C132.801 343.263 133.266 343.41 133.847 343.41C134.429 343.41 134.89 343.263 135.23 342.968C135.57 342.674 135.739 342.285 135.739 341.802C135.739 341.296 135.566 340.91 135.218 340.646C134.871 340.374 134.414 340.238 133.847 340.238ZM138.408 343.218C139.368 342.447 140.119 341.817 140.663 341.326C141.207 340.827 141.664 340.31 142.034 339.774C142.411 339.23 142.6 338.697 142.6 338.176C142.6 337.685 142.479 337.3 142.238 337.021C142.004 336.734 141.622 336.59 141.093 336.59C140.58 336.59 140.18 336.752 139.893 337.077C139.613 337.394 139.462 337.821 139.439 338.357H138.442C138.473 337.511 138.729 336.858 139.213 336.397C139.696 335.937 140.319 335.706 141.082 335.706C141.86 335.706 142.476 335.922 142.929 336.352C143.39 336.783 143.62 337.376 143.62 338.131C143.62 338.758 143.431 339.37 143.053 339.966C142.683 340.555 142.26 341.076 141.785 341.53C141.309 341.975 140.701 342.496 139.961 343.093H143.858V343.954H138.408V343.218ZM148.857 337.916C148.91 337.221 149.178 336.677 149.661 336.284C150.145 335.891 150.771 335.695 151.542 335.695C152.055 335.695 152.497 335.789 152.867 335.978C153.245 336.159 153.528 336.409 153.717 336.726C153.913 337.043 154.012 337.402 154.012 337.802C154.012 338.271 153.876 338.675 153.604 339.015C153.339 339.354 152.992 339.573 152.561 339.672V339.728C153.052 339.849 153.441 340.087 153.728 340.442C154.015 340.797 154.159 341.262 154.159 341.836C154.159 342.266 154.061 342.655 153.864 343.002C153.668 343.342 153.373 343.611 152.981 343.807C152.588 344.003 152.116 344.101 151.564 344.101C150.764 344.101 150.107 343.894 149.593 343.478C149.08 343.055 148.793 342.459 148.732 341.688H149.729C149.782 342.141 149.967 342.512 150.284 342.799C150.601 343.086 151.024 343.229 151.553 343.229C152.082 343.229 152.482 343.093 152.754 342.821C153.034 342.542 153.173 342.183 153.173 341.745C153.173 341.178 152.984 340.771 152.607 340.521C152.229 340.272 151.659 340.147 150.896 340.147H150.635V339.286H150.907C151.602 339.279 152.127 339.166 152.482 338.947C152.837 338.72 153.015 338.373 153.015 337.904C153.015 337.504 152.882 337.183 152.618 336.941C152.361 336.7 151.991 336.579 151.508 336.579C151.04 336.579 150.662 336.7 150.375 336.941C150.088 337.183 149.918 337.508 149.865 337.916H148.857ZM155.706 342.221V341.439L159.683 335.933H160.918V341.326H162.051V342.221H160.918V344.045H159.898V342.221H155.706ZM159.944 337.009L156.896 341.326H159.944V337.009ZM168.708 336.749H164.732V339.332C164.905 339.09 165.162 338.894 165.502 338.743C165.842 338.584 166.208 338.505 166.601 338.505C167.228 338.505 167.738 338.637 168.13 338.901C168.523 339.158 168.803 339.494 168.969 339.91C169.143 340.317 169.229 340.752 169.229 341.212C169.229 341.756 169.127 342.243 168.924 342.674C168.72 343.104 168.406 343.444 167.983 343.694C167.568 343.943 167.05 344.067 166.431 344.067C165.638 344.067 164.996 343.864 164.505 343.456C164.014 343.048 163.716 342.504 163.61 341.824H164.618C164.717 342.255 164.924 342.591 165.241 342.833C165.559 343.074 165.959 343.195 166.442 343.195C167.039 343.195 167.488 343.018 167.791 342.663C168.093 342.3 168.244 341.824 168.244 341.235C168.244 340.646 168.093 340.193 167.791 339.876C167.488 339.551 167.043 339.388 166.454 339.388C166.053 339.388 165.702 339.487 165.4 339.683C165.105 339.872 164.89 340.132 164.754 340.465H163.78V335.842H168.708V336.749ZM175.57 337.802C175.404 336.964 174.886 336.545 174.018 336.545C173.346 336.545 172.843 336.805 172.511 337.326C172.179 337.84 172.016 338.69 172.024 339.876C172.197 339.483 172.484 339.177 172.885 338.958C173.293 338.731 173.746 338.618 174.244 338.618C175.022 338.618 175.642 338.86 176.102 339.343C176.571 339.826 176.805 340.495 176.805 341.348C176.805 341.862 176.703 342.323 176.499 342.731C176.303 343.138 176 343.463 175.593 343.705C175.192 343.947 174.705 344.067 174.131 344.067C173.353 344.067 172.745 343.894 172.307 343.546C171.869 343.199 171.563 342.719 171.389 342.107C171.216 341.496 171.129 340.74 171.129 339.842C171.129 337.07 172.096 335.684 174.029 335.684C174.769 335.684 175.351 335.884 175.774 336.284C176.197 336.684 176.446 337.19 176.522 337.802H175.57ZM174.029 339.49C173.704 339.49 173.398 339.558 173.111 339.694C172.824 339.823 172.59 340.023 172.409 340.295C172.235 340.559 172.148 340.884 172.148 341.269C172.148 341.843 172.315 342.311 172.647 342.674C172.979 343.029 173.455 343.206 174.074 343.206C174.603 343.206 175.022 343.044 175.332 342.719C175.649 342.387 175.808 341.941 175.808 341.382C175.808 340.793 175.657 340.333 175.355 340C175.053 339.66 174.611 339.49 174.029 339.49ZM187.067 336.658L183.917 344.045H182.875L186.07 336.76H181.697V335.876H187.067V336.658ZM190.11 339.785C189.687 339.619 189.362 339.377 189.136 339.06C188.909 338.743 188.796 338.357 188.796 337.904C188.796 337.496 188.898 337.13 189.102 336.805C189.306 336.473 189.608 336.212 190.008 336.024C190.416 335.827 190.907 335.729 191.481 335.729C192.055 335.729 192.542 335.827 192.943 336.024C193.35 336.212 193.656 336.473 193.86 336.805C194.072 337.13 194.178 337.496 194.178 337.904C194.178 338.342 194.06 338.727 193.826 339.06C193.592 339.385 193.271 339.626 192.863 339.785C193.332 339.928 193.702 340.181 193.974 340.544C194.253 340.899 194.393 341.33 194.393 341.836C194.393 342.326 194.272 342.757 194.03 343.127C193.789 343.49 193.445 343.773 192.999 343.977C192.561 344.173 192.055 344.271 191.481 344.271C190.907 344.271 190.401 344.173 189.963 343.977C189.532 343.773 189.196 343.49 188.955 343.127C188.713 342.757 188.592 342.326 188.592 341.836C188.592 341.33 188.728 340.895 189 340.533C189.272 340.17 189.642 339.921 190.11 339.785ZM193.181 338.029C193.181 337.568 193.029 337.213 192.727 336.964C192.425 336.715 192.01 336.59 191.481 336.59C190.96 336.59 190.548 336.715 190.246 336.964C189.944 337.213 189.793 337.572 189.793 338.04C189.793 338.463 189.948 338.803 190.258 339.06C190.575 339.317 190.983 339.445 191.481 339.445C191.987 339.445 192.395 339.317 192.705 339.06C193.022 338.795 193.181 338.452 193.181 338.029ZM191.481 340.238C190.922 340.238 190.465 340.37 190.11 340.635C189.755 340.891 189.578 341.28 189.578 341.802C189.578 342.285 189.748 342.674 190.088 342.968C190.435 343.263 190.9 343.41 191.481 343.41C192.063 343.41 192.523 343.263 192.863 342.968C193.203 342.674 193.373 342.285 193.373 341.802C193.373 341.296 193.199 340.91 192.852 340.646C192.505 340.374 192.048 340.238 191.481 340.238ZM197.492 341.847C197.568 342.277 197.741 342.61 198.013 342.844C198.293 343.078 198.667 343.195 199.135 343.195C199.762 343.195 200.223 342.95 200.517 342.459C200.819 341.968 200.963 341.141 200.948 339.978C200.789 340.317 200.525 340.586 200.155 340.782C199.785 340.971 199.373 341.065 198.92 341.065C198.414 341.065 197.961 340.963 197.56 340.759C197.167 340.548 196.858 340.242 196.631 339.842C196.405 339.441 196.291 338.958 196.291 338.391C196.291 337.583 196.525 336.934 196.994 336.443C197.462 335.944 198.127 335.695 198.988 335.695C200.045 335.695 200.785 336.039 201.208 336.726C201.639 337.413 201.854 338.437 201.854 339.796C201.854 340.748 201.767 341.533 201.594 342.153C201.427 342.772 201.14 343.244 200.732 343.569C200.332 343.894 199.781 344.056 199.078 344.056C198.308 344.056 197.707 343.848 197.277 343.433C196.846 343.018 196.601 342.489 196.541 341.847H197.492ZM199.09 340.193C199.596 340.193 200.011 340.038 200.336 339.728C200.661 339.411 200.823 338.984 200.823 338.448C200.823 337.882 200.664 337.425 200.347 337.077C200.03 336.73 199.584 336.556 199.01 336.556C198.482 336.556 198.059 336.722 197.741 337.055C197.432 337.387 197.277 337.825 197.277 338.369C197.277 338.92 197.432 339.362 197.741 339.694C198.051 340.027 198.501 340.193 199.09 340.193ZM203.708 339.864C203.708 338.565 203.919 337.553 204.342 336.828C204.765 336.095 205.505 335.729 206.563 335.729C207.612 335.729 208.349 336.095 208.772 336.828C209.195 337.553 209.406 338.565 209.406 339.864C209.406 341.186 209.195 342.213 208.772 342.946C208.349 343.678 207.612 344.045 206.563 344.045C205.505 344.045 204.765 343.678 204.342 342.946C203.919 342.213 203.708 341.186 203.708 339.864ZM208.387 339.864C208.387 339.207 208.341 338.652 208.251 338.199C208.168 337.738 207.99 337.368 207.718 337.088C207.454 336.809 207.069 336.669 206.563 336.669C206.049 336.669 205.656 336.809 205.384 337.088C205.12 337.368 204.942 337.738 204.852 338.199C204.769 338.652 204.727 339.207 204.727 339.864C204.727 340.544 204.769 341.114 204.852 341.575C204.942 342.036 205.12 342.406 205.384 342.685C205.656 342.965 206.049 343.104 206.563 343.104C207.069 343.104 207.454 342.965 207.718 342.685C207.99 342.406 208.168 342.036 208.251 341.575C208.341 341.114 208.387 340.544 208.387 339.864ZM214.379 336.794V335.854H216.509V344.045H215.467V336.794H214.379ZM218.56 343.218C219.52 342.447 220.271 341.817 220.815 341.326C221.359 340.827 221.816 340.31 222.186 339.774C222.563 339.23 222.752 338.697 222.752 338.176C222.752 337.685 222.631 337.3 222.39 337.021C222.156 336.734 221.774 336.59 221.245 336.59C220.732 336.59 220.332 336.752 220.045 337.077C219.765 337.394 219.614 337.821 219.591 338.357H218.594C218.625 337.511 218.881 336.858 219.365 336.397C219.848 335.937 220.471 335.706 221.234 335.706C222.012 335.706 222.628 335.922 223.081 336.352C223.542 336.783 223.772 337.376 223.772 338.131C223.772 338.758 223.583 339.37 223.205 339.966C222.835 340.555 222.412 341.076 221.937 341.53C221.461 341.975 220.853 342.496 220.112 343.093H224.01V343.954H218.56V343.218ZM227.102 339.785C226.679 339.619 226.354 339.377 226.127 339.06C225.901 338.743 225.788 338.357 225.788 337.904C225.788 337.496 225.89 337.13 226.093 336.805C226.297 336.473 226.599 336.212 227 336.024C227.408 335.827 227.899 335.729 228.473 335.729C229.047 335.729 229.534 335.827 229.934 336.024C230.342 336.212 230.648 336.473 230.852 336.805C231.063 337.13 231.169 337.496 231.169 337.904C231.169 338.342 231.052 338.727 230.818 339.06C230.584 339.385 230.263 339.626 229.855 339.785C230.323 339.928 230.693 340.181 230.965 340.544C231.245 340.899 231.384 341.33 231.384 341.836C231.384 342.326 231.263 342.757 231.022 343.127C230.78 343.49 230.436 343.773 229.991 343.977C229.553 344.173 229.047 344.271 228.473 344.271C227.899 344.271 227.393 344.173 226.954 343.977C226.524 343.773 226.188 343.49 225.946 343.127C225.704 342.757 225.584 342.326 225.584 341.836C225.584 341.33 225.72 340.895 225.991 340.533C226.263 340.17 226.633 339.921 227.102 339.785ZM230.172 338.029C230.172 337.568 230.021 337.213 229.719 336.964C229.417 336.715 229.001 336.59 228.473 336.59C227.951 336.59 227.54 336.715 227.238 336.964C226.936 337.213 226.785 337.572 226.785 338.04C226.785 338.463 226.939 338.803 227.249 339.06C227.566 339.317 227.974 339.445 228.473 339.445C228.979 339.445 229.387 339.317 229.696 339.06C230.013 338.795 230.172 338.452 230.172 338.029ZM228.473 340.238C227.914 340.238 227.457 340.37 227.102 340.635C226.747 340.891 226.569 341.28 226.569 341.802C226.569 342.285 226.739 342.674 227.079 342.968C227.427 343.263 227.891 343.41 228.473 343.41C229.054 343.41 229.515 343.263 229.855 342.968C230.195 342.674 230.365 342.285 230.365 341.802C230.365 341.296 230.191 340.91 229.843 340.646C229.496 340.374 229.039 340.238 228.473 340.238ZM234.484 341.847C234.559 342.277 234.733 342.61 235.005 342.844C235.284 343.078 235.658 343.195 236.127 343.195C236.753 343.195 237.214 342.95 237.509 342.459C237.811 341.968 237.954 341.141 237.939 339.978C237.781 340.317 237.516 340.586 237.146 340.782C236.776 340.971 236.364 341.065 235.911 341.065C235.405 341.065 234.952 340.963 234.552 340.759C234.159 340.548 233.849 340.242 233.623 339.842C233.396 339.441 233.283 338.958 233.283 338.391C233.283 337.583 233.517 336.934 233.985 336.443C234.454 335.944 235.118 335.695 235.979 335.695C237.037 335.695 237.777 336.039 238.2 336.726C238.63 337.413 238.846 338.437 238.846 339.796C238.846 340.748 238.759 341.533 238.585 342.153C238.419 342.772 238.132 343.244 237.724 343.569C237.324 343.894 236.772 344.056 236.07 344.056C235.299 344.056 234.699 343.848 234.268 343.433C233.838 343.018 233.592 342.489 233.532 341.847H234.484ZM236.081 340.193C236.587 340.193 237.003 340.038 237.327 339.728C237.652 339.411 237.815 338.984 237.815 338.448C237.815 337.882 237.656 337.425 237.339 337.077C237.022 336.73 236.576 336.556 236.002 336.556C235.473 336.556 235.05 336.722 234.733 337.055C234.423 337.387 234.268 337.825 234.268 338.369C234.268 338.92 234.423 339.362 234.733 339.694C235.043 340.027 235.492 340.193 236.081 340.193Z" fill="white"/>
<path d="M500.471 115.453H521.138V155.539H500.471V115.453Z" fill="#FF5F00"/>
<path d="M486.496 175.717V171.467C486.496 169.838 485.577 168.776 484.003 168.776C483.215 168.776 482.363 169.059 481.772 169.98C481.313 169.201 480.657 168.776 479.673 168.776C479.016 168.776 478.361 168.988 477.836 169.767V168.918H476.458V175.717H477.836V171.963C477.836 170.759 478.426 170.192 479.345 170.192C480.263 170.192 480.723 170.83 480.723 171.963V175.717H482.1V171.963C482.1 170.759 482.756 170.192 483.609 170.192C484.528 170.192 484.987 170.83 484.987 171.963V175.717H486.496ZM506.9 168.918H504.67V166.864H503.292V168.918H502.045V170.263H503.292V173.379C503.292 174.938 503.882 175.858 505.457 175.858C506.048 175.858 506.703 175.646 507.163 175.363L506.769 174.088C506.375 174.371 505.916 174.442 505.588 174.442C504.932 174.442 504.67 174.017 504.67 173.308V170.263H506.9V168.918ZM518.579 168.776C517.792 168.776 517.267 169.201 516.939 169.767V168.918H515.561V175.717H516.939V171.892C516.939 170.759 517.398 170.122 518.251 170.122C518.513 170.122 518.841 170.193 519.104 170.263L519.497 168.847C519.235 168.776 518.841 168.776 518.579 168.776V168.776ZM500.93 169.484C500.274 168.988 499.355 168.776 498.371 168.776C496.797 168.776 495.747 169.626 495.747 170.971C495.747 172.105 496.534 172.742 497.912 172.955L498.568 173.026C499.29 173.167 499.683 173.379 499.683 173.734C499.683 174.229 499.159 174.583 498.24 174.583C497.321 174.583 496.6 174.229 496.14 173.875L495.484 175.008C496.206 175.575 497.19 175.858 498.174 175.858C500.011 175.858 501.061 174.938 501.061 173.663C501.061 172.459 500.208 171.821 498.896 171.609L498.24 171.538C497.649 171.467 497.19 171.326 497.19 170.901C497.19 170.405 497.649 170.122 498.371 170.122C499.159 170.122 499.946 170.475 500.339 170.688L500.93 169.484ZM537.54 168.776C536.752 168.776 536.228 169.201 535.899 169.767V168.918H534.522V175.717H535.899V171.892C535.899 170.759 536.359 170.122 537.211 170.122C537.474 170.122 537.802 170.193 538.065 170.263L538.458 168.847C538.196 168.776 537.802 168.776 537.54 168.776ZM519.957 172.317C519.957 174.371 521.269 175.858 523.303 175.858C524.221 175.858 524.877 175.646 525.533 175.079L524.877 173.875C524.352 174.3 523.827 174.513 523.237 174.513C522.122 174.513 521.334 173.663 521.334 172.317C521.334 171.042 522.122 170.192 523.237 170.122C523.827 170.122 524.352 170.334 524.877 170.759L525.533 169.555C524.877 168.988 524.221 168.776 523.303 168.776C521.269 168.776 519.957 170.263 519.957 172.317ZM532.685 172.317V168.918H531.307V169.767C530.848 169.13 530.192 168.776 529.339 168.776C527.567 168.776 526.189 170.263 526.189 172.317C526.189 174.371 527.567 175.858 529.339 175.858C530.257 175.858 530.913 175.504 531.307 174.867V175.717H532.685V172.317ZM527.633 172.317C527.633 171.113 528.354 170.122 529.535 170.122C530.651 170.122 531.438 171.042 531.438 172.317C531.438 173.521 530.651 174.513 529.535 174.513C528.354 174.442 527.633 173.521 527.633 172.317ZM511.165 168.776C509.328 168.776 508.016 170.192 508.016 172.317C508.016 174.442 509.328 175.858 511.23 175.858C512.149 175.858 513.068 175.575 513.789 174.938L513.133 173.875C512.608 174.3 511.952 174.583 511.296 174.583C510.443 174.583 509.59 174.159 509.393 172.954H514.052V172.388C514.118 170.192 512.936 168.776 511.165 168.776H511.165ZM511.165 170.051C512.018 170.051 512.609 170.617 512.739 171.68H509.459C509.59 170.759 510.181 170.051 511.165 170.051ZM545.347 172.317V166.226H543.969V169.767C543.51 169.13 542.854 168.776 542.001 168.776C540.23 168.776 538.852 170.263 538.852 172.317C538.852 174.371 540.23 175.858 542.001 175.858C542.92 175.858 543.576 175.504 543.969 174.867V175.717H545.347V172.317ZM540.295 172.317C540.295 171.113 541.017 170.122 542.198 170.122C543.313 170.122 544.101 171.042 544.101 172.317C544.101 173.521 543.313 174.513 542.198 174.513C541.017 174.442 540.295 173.521 540.295 172.317ZM494.238 172.317V168.918H492.86V169.767C492.401 169.13 491.745 168.776 490.892 168.776C489.12 168.776 487.742 170.263 487.742 172.317C487.742 174.371 489.12 175.858 490.892 175.858C491.81 175.858 492.466 175.504 492.86 174.867V175.717H494.238V172.317ZM489.12 172.317C489.12 171.113 489.842 170.122 491.023 170.122C492.138 170.122 492.926 171.042 492.926 172.317C492.926 173.521 492.138 174.513 491.023 174.513C489.842 174.442 489.12 173.521 489.12 172.317Z" fill="white"/>
<path d="M501.783 135.496C501.783 127.352 505.326 120.127 510.771 115.453C506.769 112.053 501.717 109.999 496.206 109.999C483.15 109.999 472.587 121.402 472.587 135.496C472.587 149.59 483.15 160.993 496.206 160.993C501.717 160.993 506.769 158.939 510.771 155.539C505.326 150.936 501.783 143.641 501.783 135.496Z" fill="#EB001B"/>
<path d="M549.02 135.496C549.02 149.59 538.458 160.993 525.401 160.993C519.89 160.993 514.838 158.939 510.836 155.539C516.347 150.865 519.825 143.641 519.825 135.496C519.825 127.352 516.282 120.127 510.836 115.453C514.838 112.053 519.89 109.999 525.401 109.999C538.458 109.999 549.021 121.473 549.021 135.496H549.02Z" fill="#F79E1B"/>
<path d="M127.78 180.23C127.78 180.955 127.599 181.65 127.236 182.315C126.874 182.964 126.337 183.508 125.627 183.946C124.932 184.384 124.094 184.633 123.112 184.694V186.529H121.889V184.694C120.514 184.573 119.396 184.135 118.535 183.379C117.674 182.609 117.236 181.635 117.221 180.456H119.419C119.479 181.091 119.713 181.642 120.121 182.111C120.544 182.579 121.133 182.873 121.889 182.994V177.33C120.876 177.073 120.061 176.808 119.441 176.536C118.822 176.265 118.293 175.842 117.855 175.268C117.417 174.694 117.198 173.923 117.198 172.956C117.198 171.733 117.621 170.721 118.467 169.92C119.328 169.119 120.469 168.674 121.889 168.583V166.702H123.112V168.583C124.396 168.689 125.431 169.104 126.216 169.829C127.002 170.539 127.455 171.468 127.576 172.616H125.378C125.303 172.088 125.068 171.612 124.676 171.189C124.283 170.751 123.762 170.464 123.112 170.328V175.857C124.109 176.113 124.917 176.378 125.537 176.65C126.171 176.907 126.7 177.322 127.123 177.896C127.561 178.47 127.78 179.248 127.78 180.23ZM119.305 172.843C119.305 173.583 119.524 174.15 119.963 174.542C120.401 174.935 121.043 175.26 121.889 175.517V170.283C121.103 170.358 120.476 170.615 120.008 171.053C119.54 171.476 119.305 172.073 119.305 172.843ZM123.112 183.017C123.928 182.926 124.562 182.632 125.016 182.133C125.484 181.635 125.718 181.038 125.718 180.343C125.718 179.603 125.491 179.037 125.038 178.644C124.585 178.236 123.943 177.911 123.112 177.669V183.017ZM141.785 169.965H133.831V175.132C134.179 174.648 134.692 174.255 135.372 173.953C136.052 173.636 136.785 173.478 137.57 173.478C138.824 173.478 139.844 173.742 140.629 174.271C141.415 174.784 141.974 175.456 142.306 176.287C142.653 177.103 142.827 177.972 142.827 178.893C142.827 179.981 142.623 180.955 142.215 181.816C141.807 182.677 141.18 183.357 140.335 183.855C139.504 184.354 138.469 184.603 137.23 184.603C135.644 184.603 134.36 184.195 133.378 183.379C132.396 182.564 131.8 181.476 131.588 180.117H133.605C133.801 180.978 134.217 181.65 134.851 182.133C135.486 182.617 136.286 182.858 137.253 182.858C138.446 182.858 139.345 182.503 139.949 181.793C140.554 181.068 140.856 180.117 140.856 178.938C140.856 177.76 140.554 176.854 139.949 176.219C139.345 175.57 138.454 175.245 137.276 175.245C136.475 175.245 135.773 175.441 135.168 175.834C134.579 176.212 134.149 176.733 133.877 177.398H131.928V168.153H141.785V169.965ZM148.037 181.703L145.499 187.798H144.117L145.771 181.703H148.037ZM160.142 169.784L153.843 184.558H151.759L158.148 169.988H149.402V168.221H160.142V169.784ZM172.874 169.965H164.921V175.132C165.269 174.648 165.782 174.255 166.462 173.953C167.142 173.636 167.874 173.478 168.66 173.478C169.914 173.478 170.933 173.742 171.719 174.271C172.504 174.784 173.063 175.456 173.396 176.287C173.743 177.103 173.917 177.972 173.917 178.893C173.917 179.981 173.713 180.955 173.305 181.816C172.897 182.677 172.27 183.357 171.424 183.855C170.593 184.354 169.559 184.603 168.32 184.603C166.734 184.603 165.45 184.195 164.468 183.379C163.486 182.564 162.889 181.476 162.678 180.117H164.695C164.891 180.978 165.306 181.65 165.941 182.133C166.575 182.617 167.376 182.858 168.343 182.858C169.536 182.858 170.435 182.503 171.039 181.793C171.643 181.068 171.945 180.117 171.945 178.938C171.945 177.76 171.643 176.854 171.039 176.219C170.435 175.57 169.544 175.245 168.365 175.245C167.565 175.245 166.862 175.441 166.258 175.834C165.669 176.212 165.238 176.733 164.966 177.398H163.018V168.153H172.874V169.965ZM176.657 176.197C176.657 173.598 177.08 171.574 177.926 170.124C178.772 168.659 180.252 167.926 182.367 167.926C184.467 167.926 185.939 168.659 186.785 170.124C187.631 171.574 188.054 173.598 188.054 176.197C188.054 178.84 187.631 180.895 186.785 182.36C185.939 183.825 184.467 184.558 182.367 184.558C180.252 184.558 178.772 183.825 177.926 182.36C177.08 180.895 176.657 178.84 176.657 176.197ZM186.015 176.197C186.015 174.882 185.924 173.772 185.743 172.866C185.577 171.944 185.222 171.204 184.678 170.645C184.149 170.086 183.379 169.807 182.367 169.807C181.34 169.807 180.554 170.086 180.01 170.645C179.482 171.204 179.127 171.944 178.945 172.866C178.779 173.772 178.696 174.882 178.696 176.197C178.696 177.556 178.779 178.697 178.945 179.618C179.127 180.54 179.482 181.28 180.01 181.839C180.554 182.398 181.34 182.677 182.367 182.677C183.379 182.677 184.149 182.398 184.678 181.839C185.222 181.28 185.577 180.54 185.743 179.618C185.924 178.697 186.015 177.556 186.015 176.197ZM193.355 181.703L190.817 187.798H189.435L191.089 181.703H193.355ZM195.128 182.904C197.046 181.363 198.549 180.101 199.637 179.12C200.725 178.123 201.638 177.088 202.379 176.015C203.134 174.928 203.512 173.863 203.512 172.82C203.512 171.839 203.27 171.068 202.787 170.509C202.318 169.935 201.555 169.648 200.498 169.648C199.471 169.648 198.67 169.973 198.096 170.622C197.537 171.257 197.235 172.11 197.19 173.183H195.196C195.256 171.491 195.77 170.184 196.737 169.263C197.703 168.341 198.95 167.881 200.475 167.881C202.031 167.881 203.262 168.311 204.169 169.172C205.09 170.033 205.551 171.219 205.551 172.73C205.551 173.984 205.173 175.207 204.418 176.401C203.678 177.579 202.832 178.621 201.88 179.527C200.929 180.419 199.712 181.461 198.232 182.654H206.027V184.376H195.128V182.904ZM208.41 176.197C208.41 173.598 208.833 171.574 209.679 170.124C210.525 168.659 212.006 167.926 214.12 167.926C216.22 167.926 217.693 168.659 218.539 170.124C219.385 171.574 219.808 173.598 219.808 176.197C219.808 178.84 219.385 180.895 218.539 182.36C217.693 183.825 216.22 184.558 214.12 184.558C212.006 184.558 210.525 183.825 209.679 182.36C208.833 180.895 208.41 178.84 208.41 176.197ZM217.769 176.197C217.769 174.882 217.678 173.772 217.497 172.866C217.33 171.944 216.975 171.204 216.432 170.645C215.903 170.086 215.133 169.807 214.12 169.807C213.093 169.807 212.308 170.086 211.764 170.645C211.235 171.204 210.88 171.944 210.699 172.866C210.533 173.772 210.45 174.882 210.45 176.197C210.45 177.556 210.533 178.697 210.699 179.618C210.88 180.54 211.235 181.28 211.764 181.839C212.308 182.398 213.093 182.677 214.12 182.677C215.133 182.677 215.903 182.398 216.432 181.839C216.975 181.28 217.33 180.54 217.497 179.618C217.678 178.697 217.769 177.556 217.769 176.197Z" fill="white"/>
<path opacity="0.54" d="M116.326 127.132C116.326 126.362 116.5 125.67 116.847 125.059C117.194 124.439 117.666 123.956 118.263 123.608C118.867 123.261 119.536 123.087 120.268 123.087C121.129 123.087 121.881 123.295 122.523 123.71C123.165 124.126 123.633 124.715 123.928 125.478H122.693C122.474 125.002 122.157 124.636 121.741 124.379C121.333 124.122 120.842 123.994 120.268 123.994C119.717 123.994 119.222 124.122 118.784 124.379C118.346 124.636 118.003 125.002 117.753 125.478C117.504 125.946 117.379 126.497 117.379 127.132C117.379 127.759 117.504 128.31 117.753 128.786C118.003 129.254 118.346 129.617 118.784 129.874C119.222 130.13 119.717 130.259 120.268 130.259C120.842 130.259 121.333 130.134 121.741 129.885C122.157 129.628 122.474 129.262 122.693 128.786H123.928C123.633 129.541 123.165 130.127 122.523 130.542C121.881 130.95 121.129 131.154 120.268 131.154C119.536 131.154 118.867 130.984 118.263 130.644C117.666 130.297 117.194 129.817 116.847 129.205C116.5 128.593 116.326 127.902 116.326 127.132ZM130.969 124.877V131.086H129.938V130.168C129.741 130.485 129.466 130.735 129.111 130.916C128.763 131.09 128.378 131.177 127.955 131.177C127.472 131.177 127.037 131.078 126.652 130.882C126.267 130.678 125.961 130.376 125.734 129.976C125.515 129.575 125.406 129.088 125.406 128.514V124.877H126.426V128.378C126.426 128.99 126.58 129.462 126.89 129.794C127.2 130.119 127.623 130.282 128.159 130.282C128.71 130.282 129.145 130.112 129.462 129.772C129.779 129.432 129.938 128.937 129.938 128.288V124.877H130.969ZM133.74 125.886C133.922 125.531 134.179 125.255 134.511 125.059C134.851 124.862 135.262 124.764 135.746 124.764V125.829H135.474C134.318 125.829 133.74 126.456 133.74 127.71V131.086H132.709V124.877H133.74V125.886ZM137.967 125.886C138.148 125.531 138.405 125.255 138.737 125.059C139.077 124.862 139.489 124.764 139.972 124.764V125.829H139.7C138.545 125.829 137.967 126.456 137.967 127.71V131.086H136.936V124.877H137.967V125.886ZM146.827 127.744C146.827 127.94 146.816 128.148 146.793 128.367H141.831C141.869 128.979 142.076 129.458 142.454 129.806C142.839 130.146 143.304 130.316 143.847 130.316C144.293 130.316 144.663 130.214 144.958 130.01C145.26 129.798 145.471 129.519 145.592 129.171H146.702C146.536 129.768 146.204 130.255 145.705 130.633C145.207 131.003 144.588 131.188 143.847 131.188C143.258 131.188 142.73 131.056 142.261 130.791C141.801 130.527 141.438 130.153 141.174 129.67C140.909 129.179 140.777 128.612 140.777 127.97C140.777 127.328 140.906 126.766 141.162 126.282C141.419 125.799 141.778 125.429 142.239 125.172C142.707 124.908 143.243 124.775 143.847 124.775C144.437 124.775 144.958 124.904 145.411 125.161C145.864 125.417 146.211 125.772 146.453 126.226C146.702 126.671 146.827 127.177 146.827 127.744ZM145.762 127.528C145.762 127.136 145.675 126.8 145.502 126.52C145.328 126.233 145.09 126.018 144.788 125.874C144.493 125.723 144.165 125.648 143.802 125.648C143.281 125.648 142.835 125.814 142.465 126.146C142.103 126.479 141.895 126.939 141.842 127.528H145.762ZM151.213 124.764C151.968 124.764 152.58 124.994 153.048 125.455C153.517 125.908 153.751 126.565 153.751 127.426V131.086H152.731V127.574C152.731 126.954 152.576 126.482 152.267 126.158C151.957 125.825 151.534 125.659 150.998 125.659C150.454 125.659 150.02 125.829 149.695 126.169C149.378 126.509 149.219 127.004 149.219 127.653V131.086H148.188V124.877H149.219V125.761C149.423 125.444 149.699 125.198 150.046 125.025C150.401 124.851 150.79 124.764 151.213 124.764ZM156.692 125.727V129.386C156.692 129.689 156.757 129.904 156.885 130.032C157.013 130.153 157.236 130.214 157.553 130.214H158.312V131.086H157.383C156.809 131.086 156.379 130.954 156.092 130.689C155.805 130.425 155.661 129.991 155.661 129.386V125.727H154.857V124.877H155.661V123.314H156.692V124.877H158.312V125.727H156.692ZM166.536 127.019C166.823 127.064 167.084 127.181 167.318 127.37C167.56 127.559 167.748 127.793 167.884 128.072C168.028 128.352 168.1 128.65 168.1 128.967C168.1 129.368 167.998 129.73 167.794 130.055C167.59 130.372 167.291 130.625 166.899 130.814C166.513 130.995 166.056 131.086 165.528 131.086H162.582V123.189H165.414C165.951 123.189 166.408 123.28 166.785 123.461C167.163 123.635 167.446 123.873 167.635 124.175C167.824 124.477 167.918 124.817 167.918 125.195C167.918 125.663 167.79 126.052 167.533 126.362C167.284 126.664 166.952 126.883 166.536 127.019ZM163.613 126.599H165.347C165.83 126.599 166.204 126.486 166.468 126.26C166.732 126.033 166.865 125.72 166.865 125.319C166.865 124.919 166.732 124.605 166.468 124.379C166.204 124.152 165.822 124.039 165.324 124.039H163.613V126.599ZM165.437 130.236C165.951 130.236 166.351 130.115 166.638 129.874C166.925 129.632 167.069 129.296 167.069 128.865C167.069 128.427 166.918 128.084 166.615 127.834C166.313 127.578 165.909 127.449 165.403 127.449H163.613V130.236H165.437ZM169.145 127.959C169.145 127.325 169.273 126.769 169.53 126.294C169.787 125.81 170.138 125.436 170.584 125.172C171.037 124.908 171.539 124.775 172.091 124.775C172.635 124.775 173.107 124.892 173.507 125.127C173.907 125.361 174.206 125.655 174.402 126.01V124.877H175.444V131.086H174.402V129.93C174.198 130.293 173.892 130.595 173.484 130.837C173.084 131.071 172.616 131.188 172.079 131.188C171.528 131.188 171.03 131.052 170.584 130.78C170.138 130.508 169.787 130.127 169.53 129.636C169.273 129.145 169.145 128.586 169.145 127.959ZM174.402 127.97C174.402 127.502 174.308 127.094 174.119 126.747C173.93 126.399 173.673 126.135 173.348 125.954C173.031 125.765 172.68 125.67 172.295 125.67C171.909 125.67 171.558 125.761 171.241 125.942C170.924 126.124 170.671 126.388 170.482 126.735C170.293 127.083 170.199 127.491 170.199 127.959C170.199 128.435 170.293 128.85 170.482 129.205C170.671 129.553 170.924 129.821 171.241 130.01C171.558 130.191 171.909 130.282 172.295 130.282C172.68 130.282 173.031 130.191 173.348 130.01C173.673 129.821 173.93 129.553 174.119 129.205C174.308 128.85 174.402 128.439 174.402 127.97ZM178.218 122.702V131.086H177.187V122.702H178.218ZM179.589 127.959C179.589 127.325 179.718 126.769 179.975 126.294C180.231 125.81 180.583 125.436 181.028 125.172C181.481 124.908 181.984 124.775 182.535 124.775C183.079 124.775 183.551 124.892 183.951 125.127C184.352 125.361 184.65 125.655 184.846 126.01V124.877H185.889V131.086H184.846V129.93C184.642 130.293 184.336 130.595 183.929 130.837C183.528 131.071 183.06 131.188 182.524 131.188C181.972 131.188 181.474 131.052 181.028 130.78C180.583 130.508 180.231 130.127 179.975 129.636C179.718 129.145 179.589 128.586 179.589 127.959ZM184.846 127.97C184.846 127.502 184.752 127.094 184.563 126.747C184.374 126.399 184.117 126.135 183.793 125.954C183.475 125.765 183.124 125.67 182.739 125.67C182.354 125.67 182.003 125.761 181.685 125.942C181.368 126.124 181.115 126.388 180.926 126.735C180.737 127.083 180.643 127.491 180.643 127.959C180.643 128.435 180.737 128.85 180.926 129.205C181.115 129.553 181.368 129.821 181.685 130.01C182.003 130.191 182.354 130.282 182.739 130.282C183.124 130.282 183.475 130.191 183.793 130.01C184.117 129.821 184.374 129.553 184.563 129.205C184.752 128.85 184.846 128.439 184.846 127.97ZM190.656 124.764C191.411 124.764 192.023 124.994 192.491 125.455C192.96 125.908 193.194 126.565 193.194 127.426V131.086H192.174V127.574C192.174 126.954 192.019 126.482 191.709 126.158C191.4 125.825 190.977 125.659 190.441 125.659C189.897 125.659 189.462 125.829 189.138 126.169C188.82 126.509 188.662 127.004 188.662 127.653V131.086H187.631V124.877H188.662V125.761C188.866 125.444 189.141 125.198 189.489 125.025C189.844 124.851 190.233 124.764 190.656 124.764ZM194.493 127.97C194.493 127.328 194.621 126.769 194.878 126.294C195.135 125.81 195.49 125.436 195.943 125.172C196.403 124.908 196.928 124.775 197.518 124.775C198.28 124.775 198.907 124.96 199.398 125.331C199.897 125.701 200.225 126.214 200.384 126.871H199.274C199.168 126.494 198.96 126.195 198.65 125.976C198.348 125.757 197.971 125.648 197.518 125.648C196.928 125.648 196.453 125.852 196.09 126.26C195.727 126.66 195.546 127.23 195.546 127.97C195.546 128.718 195.727 129.296 196.09 129.704C196.453 130.112 196.928 130.316 197.518 130.316C197.971 130.316 198.348 130.21 198.65 129.998C198.953 129.787 199.16 129.485 199.274 129.092H200.384C200.218 129.726 199.885 130.236 199.387 130.621C198.888 130.999 198.265 131.188 197.518 131.188C196.928 131.188 196.403 131.056 195.943 130.791C195.49 130.527 195.135 130.153 194.878 129.67C194.621 129.186 194.493 128.62 194.493 127.97ZM207.424 127.744C207.424 127.94 207.413 128.148 207.39 128.367H202.428C202.466 128.979 202.673 129.458 203.051 129.806C203.436 130.146 203.901 130.316 204.445 130.316C204.89 130.316 205.26 130.214 205.555 130.01C205.857 129.798 206.069 129.519 206.189 129.171H207.3C207.133 129.768 206.801 130.255 206.303 130.633C205.804 131.003 205.185 131.188 204.445 131.188C203.855 131.188 203.327 131.056 202.858 130.791C202.398 130.527 202.035 130.153 201.771 129.67C201.507 129.179 201.374 128.612 201.374 127.97C201.374 127.328 201.503 126.766 201.76 126.282C202.016 125.799 202.375 125.429 202.836 125.172C203.304 124.908 203.84 124.775 204.445 124.775C205.034 124.775 205.555 124.904 206.008 125.161C206.461 125.417 206.809 125.772 207.05 126.226C207.3 126.671 207.424 127.177 207.424 127.744ZM206.359 127.528C206.359 127.136 206.272 126.8 206.099 126.52C205.925 126.233 205.687 126.018 205.385 125.874C205.09 125.723 204.762 125.648 204.399 125.648C203.878 125.648 203.433 125.814 203.062 126.146C202.7 126.479 202.492 126.939 202.439 127.528H206.359Z" fill="white"/>
<rect x="451.111" y="215.447" width="187.823" height="256.322" rx="24.2775" fill="url(#paint2_linear_8_749)"/>
<mask id="mask1_8_749" style="mask-type:alpha" maskUnits="userSpaceOnUse" x="451" y="215" width="188" height="257">
<rect x="451.103" y="215.081" width="187.417" height="256.731" rx="24.2775" fill="#ED713C"/>
</mask>
<g mask="url(#mask1_8_749)">
<path opacity="0.1" d="M414.912 341.269C486.502 341.269 546.401 404.268 546.401 484.369C546.401 564.47 486.502 627.469 414.912 627.469C343.322 627.469 283.423 564.47 283.423 484.369C283.423 404.268 343.322 341.269 414.912 341.269Z" fill="black" stroke="black" stroke-width="29.1329"/>
<path opacity="0.1" d="M687.635 2.21663C722.493 2.21663 755.05 20.6046 779.354 52.2977C803.67 84.0053 819.125 128.437 819.125 178.105C819.125 227.774 803.67 272.206 779.354 303.914C755.05 335.607 722.493 353.995 687.635 353.995C652.778 353.995 620.222 335.607 595.918 303.914C571.602 272.206 556.146 227.774 556.146 178.105C556.146 128.436 571.602 84.0053 595.918 52.2977C620.222 20.6047 652.778 2.21671 687.635 2.21663Z" fill="black" stroke="black" stroke-width="29.1329"/>
</g>
<path d="M590.526 418.74C590.526 417.719 590.692 416.924 591.024 416.354C591.357 415.779 591.938 415.491 592.769 415.491C593.594 415.491 594.172 415.779 594.505 416.354C594.837 416.924 595.003 417.719 595.003 418.74C595.003 419.779 594.837 420.586 594.505 421.161C594.172 421.737 593.594 422.025 592.769 422.025C591.938 422.025 591.357 421.737 591.024 421.161C590.692 420.586 590.526 419.779 590.526 418.74ZM594.202 418.74C594.202 418.224 594.166 417.788 594.095 417.432C594.03 417.07 593.891 416.779 593.677 416.559C593.469 416.34 593.167 416.23 592.769 416.23C592.365 416.23 592.057 416.34 591.843 416.559C591.635 416.779 591.496 417.07 591.425 417.432C591.359 417.788 591.327 418.224 591.327 418.74C591.327 419.274 591.359 419.722 591.425 420.084C591.496 420.446 591.635 420.737 591.843 420.957C592.057 421.176 592.365 421.286 592.769 421.286C593.167 421.286 593.469 421.176 593.677 420.957C593.891 420.737 594.03 420.446 594.095 420.084C594.166 419.722 594.202 419.274 594.202 418.74ZM597.157 420.298C597.216 420.636 597.353 420.897 597.566 421.081C597.786 421.265 598.08 421.357 598.448 421.357C598.94 421.357 599.302 421.164 599.534 420.779C599.771 420.393 599.884 419.743 599.872 418.829C599.747 419.096 599.54 419.307 599.249 419.461C598.958 419.61 598.635 419.684 598.278 419.684C597.881 419.684 597.525 419.604 597.21 419.443C596.902 419.277 596.658 419.037 596.48 418.722C596.302 418.408 596.213 418.028 596.213 417.583C596.213 416.948 596.397 416.438 596.765 416.052C597.133 415.66 597.655 415.464 598.332 415.464C599.163 415.464 599.744 415.734 600.077 416.274C600.415 416.814 600.584 417.618 600.584 418.687C600.584 419.434 600.516 420.052 600.379 420.538C600.249 421.025 600.023 421.396 599.703 421.651C599.388 421.906 598.955 422.034 598.403 422.034C597.798 422.034 597.326 421.871 596.988 421.544C596.649 421.218 596.457 420.802 596.409 420.298H597.157ZM598.412 418.998C598.81 418.998 599.136 418.877 599.391 418.633C599.646 418.384 599.774 418.049 599.774 417.627C599.774 417.182 599.649 416.823 599.4 416.55C599.151 416.277 598.801 416.141 598.35 416.141C597.934 416.141 597.602 416.271 597.353 416.532C597.109 416.794 596.988 417.138 596.988 417.565C596.988 417.998 597.109 418.345 597.353 418.607C597.596 418.868 597.949 418.998 598.412 418.998ZM604.883 413.639L602.443 423.538H601.642L604.072 413.639H604.883ZM605.858 421.375C606.612 420.77 607.202 420.274 607.629 419.888C608.057 419.497 608.416 419.09 608.707 418.669C609.003 418.242 609.152 417.823 609.152 417.414C609.152 417.028 609.057 416.725 608.867 416.506C608.683 416.28 608.383 416.167 607.968 416.167C607.564 416.167 607.25 416.295 607.024 416.55C606.805 416.8 606.686 417.135 606.668 417.556H605.885C605.908 416.892 606.11 416.378 606.49 416.016C606.87 415.654 607.359 415.473 607.959 415.473C608.57 415.473 609.054 415.642 609.41 415.981C609.772 416.319 609.953 416.785 609.953 417.378C609.953 417.871 609.804 418.351 609.508 418.82C609.217 419.283 608.885 419.693 608.511 420.049C608.137 420.399 607.659 420.808 607.078 421.277H610.14V421.954H605.858V421.375ZM615.18 416.292H612.055V418.322C612.192 418.132 612.394 417.978 612.661 417.859C612.928 417.734 613.216 417.672 613.524 417.672C614.017 417.672 614.417 417.776 614.726 417.983C615.034 418.185 615.254 418.449 615.385 418.776C615.521 419.096 615.589 419.437 615.589 419.799C615.589 420.227 615.509 420.609 615.349 420.948C615.189 421.286 614.942 421.553 614.61 421.749C614.284 421.945 613.877 422.043 613.391 422.043C612.767 422.043 612.263 421.882 611.877 421.562C611.492 421.241 611.257 420.814 611.174 420.28H611.966C612.043 420.618 612.207 420.882 612.456 421.072C612.705 421.262 613.02 421.357 613.4 421.357C613.868 421.357 614.221 421.218 614.459 420.939C614.696 420.654 614.815 420.28 614.815 419.817C614.815 419.354 614.696 418.998 614.459 418.749C614.221 418.494 613.871 418.366 613.408 418.366C613.094 418.366 612.818 418.443 612.581 418.598C612.349 418.746 612.18 418.951 612.073 419.212H611.308V415.58H615.18V416.292Z" fill="white"/>
<path d="M535.768 361.402V360.529H537.745V368.135H536.778V361.402H535.768ZM539.274 367.367C540.165 366.652 540.863 366.066 541.368 365.61C541.873 365.147 542.297 364.667 542.641 364.169C542.991 363.664 543.167 363.17 543.167 362.686C543.167 362.23 543.054 361.872 542.83 361.613C542.613 361.346 542.258 361.213 541.768 361.213C541.291 361.213 540.919 361.364 540.652 361.665C540.393 361.96 540.253 362.356 540.232 362.854H539.306C539.334 362.069 539.572 361.462 540.021 361.034C540.47 360.606 541.049 360.392 541.757 360.392C542.479 360.392 543.051 360.592 543.472 360.992C543.9 361.392 544.114 361.942 544.114 362.644C544.114 363.226 543.938 363.794 543.588 364.348C543.244 364.895 542.851 365.379 542.409 365.8C541.967 366.213 541.403 366.697 540.715 367.251H544.334V368.051H539.274V367.367ZM546.83 364.18C546.437 364.025 546.135 363.801 545.925 363.506C545.715 363.212 545.609 362.854 545.609 362.433C545.609 362.054 545.704 361.714 545.893 361.413C546.083 361.104 546.363 360.862 546.735 360.687C547.114 360.505 547.57 360.413 548.103 360.413C548.636 360.413 549.088 360.505 549.46 360.687C549.839 360.862 550.123 361.104 550.312 361.413C550.508 361.714 550.607 362.054 550.607 362.433C550.607 362.84 550.498 363.198 550.28 363.506C550.063 363.808 549.765 364.032 549.386 364.18C549.821 364.313 550.165 364.548 550.417 364.884C550.677 365.214 550.806 365.614 550.806 366.084C550.806 366.54 550.694 366.939 550.47 367.283C550.245 367.62 549.926 367.883 549.512 368.072C549.106 368.254 548.636 368.346 548.103 368.346C547.57 368.346 547.1 368.254 546.693 368.072C546.293 367.883 545.981 367.62 545.757 367.283C545.532 366.939 545.42 366.54 545.42 366.084C545.42 365.614 545.546 365.211 545.799 364.874C546.051 364.537 546.395 364.306 546.83 364.18ZM549.681 362.549C549.681 362.121 549.541 361.791 549.26 361.56C548.979 361.329 548.594 361.213 548.103 361.213C547.619 361.213 547.237 361.329 546.956 361.56C546.675 361.791 546.535 362.125 546.535 362.559C546.535 362.952 546.679 363.268 546.967 363.506C547.261 363.745 547.64 363.864 548.103 363.864C548.573 363.864 548.951 363.745 549.239 363.506C549.533 363.261 549.681 362.942 549.681 362.549ZM548.103 364.6C547.584 364.6 547.159 364.723 546.83 364.969C546.5 365.207 546.335 365.568 546.335 366.052C546.335 366.501 546.493 366.862 546.809 367.136C547.131 367.409 547.563 367.546 548.103 367.546C548.643 367.546 549.071 367.409 549.386 367.136C549.702 366.862 549.86 366.501 549.86 366.052C549.86 365.582 549.698 365.225 549.376 364.979C549.053 364.727 548.629 364.6 548.103 364.6ZM553.309 366.094C553.379 366.494 553.54 366.803 553.793 367.02C554.052 367.237 554.399 367.346 554.834 367.346C555.416 367.346 555.844 367.118 556.118 366.662C556.398 366.206 556.531 365.439 556.517 364.358C556.37 364.674 556.125 364.923 555.781 365.105C555.437 365.281 555.055 365.368 554.634 365.368C554.164 365.368 553.744 365.274 553.372 365.084C553.007 364.888 552.72 364.604 552.509 364.232C552.299 363.86 552.194 363.412 552.194 362.886C552.194 362.135 552.411 361.532 552.846 361.076C553.281 360.613 553.898 360.382 554.697 360.382C555.679 360.382 556.367 360.701 556.759 361.339C557.159 361.977 557.359 362.928 557.359 364.19C557.359 365.074 557.278 365.803 557.117 366.378C556.963 366.953 556.696 367.392 556.318 367.693C555.946 367.995 555.434 368.146 554.782 368.146C554.066 368.146 553.509 367.953 553.109 367.567C552.709 367.181 552.481 366.69 552.425 366.094H553.309ZM554.792 364.558C555.262 364.558 555.648 364.415 555.949 364.127C556.251 363.832 556.402 363.436 556.402 362.938C556.402 362.412 556.254 361.988 555.96 361.665C555.665 361.343 555.252 361.181 554.718 361.181C554.228 361.181 553.835 361.336 553.54 361.644C553.253 361.953 553.109 362.36 553.109 362.865C553.109 363.377 553.253 363.787 553.54 364.095C553.828 364.404 554.245 364.558 554.792 364.558Z" fill="white"/>
<ellipse cx="514.303" cy="371.553" rx="2.63303" ry="2.89084" fill="white"/>
<ellipse cx="488.851" cy="371.553" rx="2.63303" ry="2.89084" fill="white"/>
<ellipse cx="501.138" cy="371.553" rx="2.63303" ry="2.89084" fill="white"/>
<ellipse cx="475.686" cy="371.553" rx="2.63303" ry="2.89084" fill="white"/>
<rect x="473.076" y="406.234" width="42.6535" height="30.6961" rx="4.04624" fill="url(#paint3_radial_8_749)"/>
<path fill-rule="evenodd" clip-rule="evenodd" d="M494.402 406.539L489.663 414.561C489.663 414.561 491.559 421.58 489.663 427.597L494.402 436.621L499.141 427.597C499.141 427.597 497.246 422.583 499.141 414.561C499.141 414.561 494.402 406.539 494.402 406.539Z" stroke="#C7C7B6" stroke-width="1.05202" stroke-linejoin="bevel"/>
<path d="M473.076 414.93H489.663" stroke="#C7C7B6" stroke-width="1.05202" stroke-linejoin="bevel"/>
<path d="M498.668 414.93H515.729" stroke="#C7C7B6" stroke-width="1.05202" stroke-linejoin="bevel"/>
<path d="M473.076 427.207H489.663" stroke="#C7C7B6" stroke-width="1.05202" stroke-linejoin="bevel"/>
<path d="M498.668 427.207H515.729" stroke="#C7C7B6" stroke-width="1.05202" stroke-linejoin="bevel"/>
<path opacity="0.5" d="M473.47 339.656C473.47 338.995 473.619 338.403 473.917 337.879C474.215 337.348 474.619 336.933 475.131 336.636C475.649 336.338 476.222 336.189 476.849 336.189C477.588 336.189 478.232 336.367 478.782 336.723C479.332 337.079 479.734 337.584 479.986 338.238H478.928C478.74 337.83 478.468 337.516 478.112 337.296C477.762 337.076 477.342 336.966 476.849 336.966C476.377 336.966 475.953 337.076 475.577 337.296C475.202 337.516 474.907 337.83 474.694 338.238C474.48 338.639 474.373 339.112 474.373 339.656C474.373 340.193 474.48 340.666 474.694 341.073C474.907 341.475 475.202 341.786 475.577 342.006C475.953 342.226 476.377 342.336 476.849 342.336C477.342 342.336 477.762 342.229 478.112 342.015C478.468 341.795 478.74 341.481 478.928 341.073H479.986C479.734 341.721 479.332 342.223 478.782 342.579C478.232 342.928 477.588 343.103 476.849 343.103C476.222 343.103 475.649 342.957 475.131 342.666C474.619 342.368 474.215 341.957 473.917 341.433C473.619 340.908 473.47 340.316 473.47 339.656ZM482.185 338.587C482.341 338.283 482.561 338.047 482.846 337.879C483.137 337.71 483.49 337.626 483.904 337.626V338.539H483.671C482.681 338.539 482.185 339.076 482.185 340.151V343.045H481.302V337.723H482.185V338.587ZM489.78 340.18C489.78 340.348 489.77 340.526 489.751 340.714H485.497C485.53 341.239 485.708 341.65 486.031 341.947C486.361 342.239 486.76 342.384 487.226 342.384C487.608 342.384 487.925 342.297 488.177 342.122C488.436 341.941 488.618 341.701 488.721 341.404H489.673C489.53 341.915 489.246 342.333 488.818 342.656C488.391 342.974 487.86 343.132 487.226 343.132C486.721 343.132 486.268 343.019 485.866 342.792C485.471 342.566 485.161 342.245 484.934 341.831C484.707 341.41 484.594 340.925 484.594 340.374C484.594 339.824 484.704 339.342 484.924 338.927C485.144 338.513 485.452 338.196 485.847 337.976C486.248 337.749 486.708 337.636 487.226 337.636C487.731 337.636 488.177 337.746 488.566 337.966C488.954 338.186 489.252 338.49 489.459 338.879C489.673 339.261 489.78 339.695 489.78 340.18ZM488.867 339.996C488.867 339.659 488.792 339.371 488.644 339.131C488.495 338.885 488.291 338.701 488.032 338.578C487.779 338.448 487.498 338.384 487.187 338.384C486.74 338.384 486.358 338.526 486.041 338.811C485.73 339.096 485.552 339.491 485.507 339.996H488.867ZM490.616 340.365C490.616 339.821 490.726 339.345 490.946 338.937C491.166 338.523 491.467 338.202 491.849 337.976C492.238 337.749 492.672 337.636 493.151 337.636C493.565 337.636 493.95 337.733 494.306 337.927C494.662 338.115 494.934 338.364 495.122 338.675V335.859H496.015V343.045H495.122V342.045C494.947 342.362 494.688 342.624 494.345 342.831C494.002 343.032 493.601 343.132 493.141 343.132C492.668 343.132 492.238 343.016 491.849 342.783C491.467 342.55 491.166 342.223 490.946 341.802C490.726 341.381 490.616 340.902 490.616 340.365ZM495.122 340.374C495.122 339.973 495.041 339.623 494.879 339.325C494.717 339.028 494.497 338.801 494.219 338.646C493.947 338.484 493.646 338.403 493.316 338.403C492.985 338.403 492.684 338.481 492.413 338.636C492.141 338.791 491.924 339.018 491.762 339.316C491.6 339.614 491.519 339.963 491.519 340.365C491.519 340.772 491.6 341.128 491.762 341.433C491.924 341.731 492.141 341.96 492.413 342.122C492.684 342.278 492.985 342.355 493.316 342.355C493.646 342.355 493.947 342.278 494.219 342.122C494.497 341.96 494.717 341.731 494.879 341.433C495.041 341.128 495.122 340.776 495.122 340.374ZM497.965 336.859C497.797 336.859 497.654 336.801 497.538 336.684C497.421 336.568 497.363 336.425 497.363 336.257C497.363 336.088 497.421 335.946 497.538 335.83C497.654 335.713 497.797 335.655 497.965 335.655C498.127 335.655 498.263 335.713 498.373 335.83C498.49 335.946 498.548 336.088 498.548 336.257C498.548 336.425 498.49 336.568 498.373 336.684C498.263 336.801 498.127 336.859 497.965 336.859ZM498.392 337.723V343.045H497.509V337.723H498.392ZM500.976 338.452V341.588C500.976 341.847 501.031 342.032 501.142 342.142C501.252 342.245 501.443 342.297 501.714 342.297H502.365V343.045H501.569C501.077 343.045 500.708 342.932 500.462 342.705C500.216 342.478 500.093 342.106 500.093 341.588V338.452H499.403V337.723H500.093V336.383H500.976V337.723H502.365V338.452H500.976ZM505.695 339.656C505.695 338.995 505.843 338.403 506.141 337.879C506.439 337.348 506.844 336.933 507.355 336.636C507.873 336.338 508.446 336.189 509.074 336.189C509.812 336.189 510.456 336.367 511.007 336.723C511.557 337.079 511.958 337.584 512.211 338.238H511.152C510.964 337.83 510.693 337.516 510.336 337.296C509.987 337.076 509.566 336.966 509.074 336.966C508.601 336.966 508.177 337.076 507.802 337.296C507.426 337.516 507.132 337.83 506.918 338.238C506.705 338.639 506.598 339.112 506.598 339.656C506.598 340.193 506.705 340.666 506.918 341.073C507.132 341.475 507.426 341.786 507.802 342.006C508.177 342.226 508.601 342.336 509.074 342.336C509.566 342.336 509.987 342.229 510.336 342.015C510.693 341.795 510.964 341.481 511.152 341.073H512.211C511.958 341.721 511.557 342.223 511.007 342.579C510.456 342.928 509.812 343.103 509.074 343.103C508.446 343.103 507.873 342.957 507.355 342.666C506.844 342.368 506.439 341.957 506.141 341.433C505.843 340.908 505.695 340.316 505.695 339.656ZM513.196 340.365C513.196 339.821 513.306 339.345 513.526 338.937C513.746 338.523 514.047 338.202 514.429 337.976C514.818 337.749 515.248 337.636 515.721 337.636C516.187 337.636 516.592 337.736 516.935 337.937C517.278 338.138 517.534 338.39 517.702 338.694V337.723H518.595V343.045H517.702V342.054C517.527 342.365 517.265 342.624 516.915 342.831C516.572 343.032 516.171 343.132 515.711 343.132C515.238 343.132 514.811 343.016 514.429 342.783C514.047 342.55 513.746 342.223 513.526 341.802C513.306 341.381 513.196 340.902 513.196 340.365ZM517.702 340.374C517.702 339.973 517.621 339.623 517.459 339.325C517.297 339.028 517.077 338.801 516.799 338.646C516.527 338.484 516.226 338.403 515.896 338.403C515.565 338.403 515.264 338.481 514.992 338.636C514.721 338.791 514.504 339.018 514.342 339.316C514.18 339.614 514.099 339.963 514.099 340.365C514.099 340.772 514.18 341.128 514.342 341.433C514.504 341.731 514.721 341.96 514.992 342.122C515.264 342.278 515.565 342.355 515.896 342.355C516.226 342.355 516.527 342.278 516.799 342.122C517.077 341.96 517.297 341.731 517.459 341.433C517.621 341.128 517.702 340.776 517.702 340.374ZM520.972 338.587C521.128 338.283 521.348 338.047 521.633 337.879C521.924 337.71 522.277 337.626 522.691 337.626V338.539H522.458C521.468 338.539 520.972 339.076 520.972 340.151V343.045H520.089V337.723H520.972V338.587ZM523.381 340.365C523.381 339.821 523.491 339.345 523.711 338.937C523.931 338.523 524.232 338.202 524.614 337.976C525.003 337.749 525.437 337.636 525.916 337.636C526.33 337.636 526.715 337.733 527.071 337.927C527.427 338.115 527.699 338.364 527.887 338.675V335.859H528.78V343.045H527.887V342.045C527.712 342.362 527.453 342.624 527.11 342.831C526.767 343.032 526.366 343.132 525.906 343.132C525.433 343.132 525.003 343.016 524.614 342.783C524.232 342.55 523.931 342.223 523.711 341.802C523.491 341.381 523.381 340.902 523.381 340.365ZM527.887 340.374C527.887 339.973 527.806 339.623 527.644 339.325C527.482 339.028 527.262 338.801 526.984 338.646C526.712 338.484 526.411 338.403 526.081 338.403C525.751 338.403 525.45 338.481 525.178 338.636C524.906 338.791 524.689 339.018 524.527 339.316C524.365 339.614 524.284 339.963 524.284 340.365C524.284 340.772 524.365 341.128 524.527 341.433C524.689 341.731 524.906 341.96 525.178 342.122C525.45 342.278 525.751 342.355 526.081 342.355C526.411 342.355 526.712 342.278 526.984 342.122C527.262 341.96 527.482 341.731 527.644 341.433C527.806 341.128 527.887 340.776 527.887 340.374Z" fill="white"/>
<path d="M494.294 247.136H510.021V277.64H494.294V247.136Z" fill="#B27BFF"/>
<path d="M495.293 262.388C495.293 256.19 497.989 250.693 502.133 247.136C499.087 244.549 495.243 242.986 491.049 242.986C481.114 242.986 473.076 251.663 473.076 262.388C473.076 273.113 481.114 281.79 491.049 281.79C495.243 281.79 499.087 280.227 502.133 277.64C497.989 274.137 495.293 268.586 495.293 262.388Z" fill="#9E59FF"/>
<path d="M531.239 262.388C531.239 273.113 523.201 281.79 513.266 281.79C509.072 281.79 505.228 280.227 502.182 277.64C506.376 274.083 509.022 268.586 509.022 262.388C509.022 256.19 506.326 250.693 502.182 247.136C505.228 244.549 509.072 242.986 513.266 242.986C523.201 242.986 531.239 251.717 531.239 262.388H531.239Z" fill="#9E59FF"/>
<defs>
<filter id="filter0_f_8_749" x="-9.91821e-05" y="7.62939e-06" width="681.047" height="482.93" filterUnits="userSpaceOnUse" color-interpolation-filters="sRGB">
<feFlood flood-opacity="0" result="BackgroundImageFix"/>
<feBlend mode="normal" in="SourceGraphic" in2="BackgroundImageFix" result="shape"/>
<feGaussianBlur stdDeviation="36.4162" result="effect1_foregroundBlur_8_749"/>
</filter>
<linearGradient id="paint0_linear_8_749" x1="342.37" y1="16.9174" x2="355.638" y2="452.264" gradientUnits="userSpaceOnUse">
<stop stop-color="#423EE0"/>
<stop offset="1" stop-color="#812DE2"/>
</linearGradient>
<linearGradient id="paint1_linear_8_749" x1="334.471" y1="8.24483" x2="347.739" y2="443.592" gradientUnits="userSpaceOnUse">
<stop stop-color="#9C2CF3"/>
<stop offset="1" stop-color="#3A49F9"/>
</linearGradient>
<linearGradient id="paint2_linear_8_749" x1="545.67" y1="172.952" x2="567.44" y2="502.686" gradientUnits="userSpaceOnUse">
<stop stop-color="#9C2CF3"/>
<stop offset="1" stop-color="#3A49F9"/>
</linearGradient>
<radialGradient id="paint3_radial_8_749" cx="0" cy="0" r="1" gradientTransform="matrix(-22.5658 19.5146 -27.1163 -16.2397 497.57 417.415)" gradientUnits="userSpaceOnUse">
<stop stop-color="white"/>
<stop offset="1" stop-color="#DDDCDA"/>
</radialGradient>
</defs>
</svg>
